<svg xmlns="http://www.w3.org/2000/svg" xmlns:xlink="http://www.w3.org/1999/xlink" viewBox="0 0 1704.87 1190.43"><defs><style>.cls-1{fill:none;stroke:#231f20;}.cls-1,.cls-4,.cls-5{stroke-miterlimit:10;}.cls-1,.cls-8,.cls-9{stroke-width:10px;}.cls-2,.cls-7{fill:#fff;}.cls-2,.cls-3,.cls-6{stroke-linecap:round;stroke-linejoin:round;}.cls-2{stroke-width:37px;stroke:url(#linear-gradient);}.cls-3{fill:#408034;stroke:#408034;stroke-width:22.16px;}.cls-4,.cls-5,.cls-6,.cls-9{fill:#103d2f;}.cls-4,.cls-6,.cls-9{stroke:#103d2f;}.cls-4{stroke-width:14.29px;}.cls-5{stroke:#42afbd;stroke-width:8.54px;}.cls-6{stroke-width:93px;}.cls-8{fill:#21585f;stroke:#21585f;}</style><linearGradient id="linear-gradient" x1="497.3" y1="1189.75" x2="497.3" gradientUnits="userSpaceOnUse"><stop offset="0" stop-color="#408034"/><stop offset="0.13" stop-color="#408440"/><stop offset="0.36" stop-color="#418f5e"/><stop offset="0.66" stop-color="#41a090"/><stop offset="0.9" stop-color="#42afbd"/></linearGradient></defs><g id="Layer_2" data-name="Layer 2"><g id="Layer_3" data-name="Layer 3"><line class="cls-1" x1="660.62" y1="212.26" x2="660.62" y2="212.25"/><path class="cls-2" d="M226,814.35l-94-33.2q1.9-5.13,3.8-10.27,55.59-150.3,111.17-300.61c-87-50-131.28-139.27-114.11-244.53,21-128.89,136.36-198.55,255.39-206.49,61.52-4.1,124.75,8.57,178.44,39.38C650,106.48,700,205,690.2,300c-6.91,67-53.37,125.9-100.93,173,87.44,229.73,188.46,462.17,275.9,691.9a4.8,4.8,0,0,1-4.54,6.36h-604l59.94-145.54"/><path class="cls-3" d="M367.71,1024.29c-20.86,11.29-37.84-4.44-44.82-9.84-1-.75-4.89,6.48-4.89,6.48l-63.57,158.43H211l-41-17.13c-.66-1.12-1.39-2.22-2-3.36-2.39-4.47-2-8.59-.44-12.52,4.92-12.49,9.94-24.93,14.79-37.44,3.14-8.05,4.1-16.51-.25-25.65-4.1-8.65-12.36-14.37-23.08-12.48-10.1,1.78-16.36,7.55-19.79,15.23-5.89,13.21-11,26.79-16.38,40.21-1.42,3.49-3,7-6.94,8.75a47.6,47.6,0,0,1-6.56,1.94q-49.14-20.54-98.28-41.05,25.61-71,51.19-142.08A40.83,40.83,0,0,1,72,957.05c7.65,3.35,15.52,6.23,23.08,9.73,9,4.19,16.43,3,22.78-1.12,11.29-7.38,15.92-18.14,14.42-31.31-1.06-9.42-6.13-17.14-18-21.45C105,909.56,96.07,905.37,87,901.65a13.53,13.53,0,0,1-4.78-3.14q22.74-63.15,45.51-126.29l101.87,36.9s1.05-4.41,3.21-10.67c2.47-7.83,8.86-25.12,21.82-35.06a31,31,0,0,1,8.69-4.86c2.19-.77,12.79-4.19,23.1,1.66,13.94,7.9,15.86,26.19,16,27.23,0,0,1.18,13.08-8.72,33.93h0l-1.34,2.32L399,876.49,358.68,968.1S399,1007.34,367.71,1024.29Z"/><circle class="cls-4" cx="415.13" cy="269.82" r="190.49"/><circle class="cls-5" cx="415.16" cy="277.98" r="141.46"/><line class="cls-6" x1="421.61" y1="770.23" x2="421.61" y2="480.42"/><rect class="cls-7" x="434.91" y="661.15" width="33.4" height="59.54"/><rect class="cls-7" x="374.57" y="559.26" width="37.62" height="50.77"/><path class="cls-8" d="M970.46,755l2.25.19,2.63,2.25-.56,2.07.56,2.44L975,764l.19,2.25-.37,2.45.56,2.06-.56,2.63.37,2.07-.37,2.44v2.26l.18,2.07.38,2.44-.38,2.07.19,2.25-.19,2.44.38,2.07-.56,2.25.18,2.45.38,2.07-.38,2.25v2.63l.19,2.07.19,2.44-.19,2.26.19,2.25-.56,2.07.56,2.44-.19,2.26V823l.19,2.26L975,827.7l-.18,2.07L975,832l.38,2.45-.56,2.06.37,2.63-.37,2.07v2.44l.56,2.07-.56,2.44v2.26l.37,2.25V855l-.37,2.07v2.44l.56,2.06-.19,2.26-.37,2.44v2.26l.18,2.25.19,2.26.19,2.44L975,877.5l.19,2.25v2.45l-.37,2.25-1.88,2.26h-4.7l-2.07-2.26-.19-2.25v-2.45l-.18-2.06.18-2.26.38-2.44-.38-4.51.19-2.26.19-2.06-.56-2.26.37-2.44-.37-2.07.56-2.25-.38-2.45.38-2.25-.38-2.26.19-2.06.19-2.45v-2.25l-.38-2.07.19-2.25v-4.51l-.37-2.26.56-2.25-.38-2.26v-2.25l-.18-2.45v-2.06l.37-2.26-.19-2.44v-2.07l-.18-2.44v-6.58l.37-2.44-.37-2.07.18-2.25v-2.26l.38-2.44-.56-2.07.18-2.44.19-2.07-.19-2.44.19-2.07v-2.25l-.37-2.45.18-2.25-.18-2.07-.94-.56L963.13,773l-1.32,1.69-.94,1.69-1.69,1.88L958.05,780l-1.31,1.88-1.32,1.69-1.69,1.88-1.13,1.88-1.5,1.5L950,790.68l-1.69,1.88-1.13,1.69-1.5,1.69-1.5,1.88-1.51,1.69-.94,1.88-1.5,1.69L939.07,805l-1.69,1.69-1.13,1.7L934.38,810l-1.32,1.88-1.5,1.87-.72,1.2a6.87,6.87,0,0,1-1,1.25l-.2.19a6.53,6.53,0,0,0-1.21,1.69l-.09.17a6.35,6.35,0,0,1-1,1.41l-.59.66a6.47,6.47,0,0,0-.63.83l-.75,1.19a7.14,7.14,0,0,1-.63.82l-1,1.16a3.45,3.45,0,0,1-.26.28l-1.16,1.16a6,6,0,0,0-.72.86l-.79,1.13c-.14.19-.28.37-.43.55l-.9,1-.36.45-1.16,1.6a3.94,3.94,0,0,1-.36.45l-.75.86a5.64,5.64,0,0,0-.67.93L915.4,835l-.72,1.19a5.94,5.94,0,0,1-1,1.25l-.38.39a6.48,6.48,0,0,0-1.21,1.68h0a6.48,6.48,0,0,1-1.21,1.68l-.86.85a7.57,7.57,0,0,0-.53.6l-.94,1.21a3.92,3.92,0,0,1-.27.33l-1.06,1.2a6.28,6.28,0,0,0-.55.7l-.65,1a6,6,0,0,0-.41.69l-.29.58a6.48,6.48,0,0,1-1.21,1.68l-.49.5a5.48,5.48,0,0,0-.81,1l-.78,1.15-1.2,1.66a6.88,6.88,0,0,1-.66.77l-.64.64a6.25,6.25,0,0,0-.88,1.1l-.45.71a6.53,6.53,0,0,1-1.16,1.36l-.18.16a6.62,6.62,0,0,0-1.38,1.73l-.34.62a5,5,0,0,1-.57.87l-.74,1a6.35,6.35,0,0,1-.54.61l-1.4,1.4-1.32,1.88-1.31,1.69-1.13,1.88-1.69,1.51-1.32,2.06L884,876l-1.7,1.7-1.12,1.87-1.32,1.7-.94,1.69L877.25,885l-1.69,1.32v.38l-2.26-.19-2.06.19h-2.45l-1.88-2.26V882l-.18-2.26.37-2.06-.19-2.26V873l.19-2.07-.56-6.95.37-2.26-.37-2.25.37-2.44-.37-2.26.19-2.26-.19-2.06.37-2.44v-2.26l-.37-2.07.37-2.44V839l-.37-2.26.19-2.25-.19-2.26.37-2.25-.37-2.26.37-2.44-.37-2.26v-2.25l.56-2.07-.19-2.25v-2.26l.19-2.25-.19-2.45.19-2.25v-4.51l-.19-2.26-.37-2.25v-2.26l.37-2.44-.37-2.25.56-2.07-.56-2.26.37-2.44v-2.07l-.18-2.25-.19-2.44.37-2.07v-2.44l.19-2.45-.37-2.06.18-2.26-.37-2.25.37-2.45-.37-2.25.37-2.26,2.26-2.06,2.25-.19,1.88.19,2.26,2.25-.19,2.26.56,2.06-.56,2.45v2.06l.38,4.51V773l-.38,2.44.38,2.44-.19,2.26v4.51l.19,2.25-.19,2.26.19,2.07-.19,2.25.37,2.25-.56,2.45.19,2.25.37,2.07-.18,2.44v2.26l-.19,2.25.37,2.26-.37,2.25.37,2.26-.56,2.25.56,2.26-.18,2.25-.38,2.26.38,2.44.18,2.26v4.32l-.56,2.25v2.26l.19,2.44.37,2.25-.37,2.07.37,2.45-.18,2.06v4.7l-.19,2.26v2.44l.37,2.06-.37,2.26.19,2.25-.19,2.45.37,2.25,1.32.38,1.13-1.88,1.69-1.69.75-1.88,1.5-1.88,1.51-1.69,1.69-1.88,1.13-1.69,1.5-1.69.94-1.88,1.69-1.69.85-1a6.53,6.53,0,0,0,1.06-1.63l0-.1a6.39,6.39,0,0,1,1.31-1.9l.32-.32a4.82,4.82,0,0,0,.65-.77l1-1.4c.13-.17.26-.33.4-.49l.72-.81a6.75,6.75,0,0,0,1-1.41h0a6.5,6.5,0,0,1,1.48-1.94l0,0a6.44,6.44,0,0,0,1.25-1.5l.5-.84c.08-.13.16-.26.25-.38l1-1.39a6.39,6.39,0,0,1,.47-.59l1-1.07a6.4,6.4,0,0,0,.55-.71l.7-1a4.82,4.82,0,0,1,.38-.51l1.49-1.82,2.71-3.22a6.35,6.35,0,0,0,.54-.74l.5-.8a6.14,6.14,0,0,1,.43-.61l1-1.25a6,6,0,0,0,.49-.71l.62-1a6.44,6.44,0,0,1,.65-.9l4.19-4.86c.09-.11.19-.22.27-.34l1-1.33,1.32-1.88,1.31-1.88,1-1.41a6.73,6.73,0,0,1,.73-.87l.7-.7a5.38,5.38,0,0,0,.72-.86l.77-1.09a5,5,0,0,1,.49-.62l.84-.94a6.37,6.37,0,0,0,1-1.43l.26-.52a6.34,6.34,0,0,1,.68-1.08l.92-1.19,1.51-1.88,1.12-1.5,1.51-1.88,1.5-1.88,1.5-1.69,1.51-1.69,1.5-2.07.75-1.69,1.69-1.69,1.13-1.88,1.5-1.88,1.32-1.5,1.5-2.07L950,776.4l1.13-1.69,1.5-1.88.94-1.88,2.82-3.57,1.32-1.5,1.88-1.88.94-1.69,1.31-2.07,2.82-3.57,4-1.69Z"/><path class="cls-8" d="M1015.19,882.2l-.19-2.45.37-2.25v-2.07l-.37-2.25.19-2.45-.19-2.44.56-2.07V864l-.19-2.45-.18-2.25V857l.37-4.52-.37-2.25.37-2.07v-2.44l-.37-2.07.37-2.44-.37-2.07.37-2.63-.56-2.25v-2.07l.56-2.25-.56-2.26v-2.44l.19-2.07-.19-2.25v-2.45l.56-2.25V814l-.56-2.25.37-4.51.19-2.07-.37-2.44-.19-2.26.56-2.44-.19-2.07v-6.76l.19-2.26v-2.44l-.19-2.25.19-2.07-.19-2.44-.18-2.26.37-2.07-.37-2.63-.19-2.25.19-2.26.37-2.06-.56-2.45.19-2.06-.19-2.26,2.25-2.25,2.63-.19,2.07.19,2.26-.19,2.63.19h2.25l2.07-.19,2.25.19h13.53l2.45-.19h2.44l2.25.19,2.07-.19,2.07.19,2.25-.19h2.45l2.44.19,2.25-.19h6.58l2.44.19,2.45-.19,2.06.19,2.63-.19H1086l1.88.19,2.82-.19,2.06.19,2.26-.19,1.88.19,2.63,2.06-.38,1.88-.56,2.26-2.07,2.25-2.44-.19h-2.63l-1.88.19h-2.44l-2.45-.19-1.88.19-2.06-.19h-7.14l-1.88.19-2.45-.19-2.25.19h-4.51l-2.07-.19H1056l-2.44.19-2.07-.19h-4.69l-2.07.19h-18.23l-2.25,2.26.18,2.06-.37,2.45-.19,2.06.56,2.26-.56,2.07.19,2.44v2.07l.19,2.44L1024,786l.19,2.26-.38,2.07.19,2.44-.19,2.07.38,2.44v2.07l-.19,2.25.19,2.26v2.25l.18,2.07-.37,2.25.37,4.51v2.26l-.56,2.44v2.25l.19,2.26v4.13l.19,2.26-.19,2.25.19,2.45-.38,2.06.56,2.26v2.25l-.56,2.26v2.44l.19,2.07.37,2.07-.18,2.25-.38,2.44.38,2.07.18,2.44v2.26l-.56,2.25.56,2.26v2.25l-.56,2.07.56,6.58v7l-2.63,2.07-2.06.19h-2.45l-1.69-2.26Z"/><path class="cls-8" d="M1124.18,882l-.19-2.26.38-2.06-.38-2.45.19-2.25-.19-2.26-.19-2.25L1124,866l-.19-2.06.57-2.26-.19-2.44-.38-2.25.38-2.07.19-2.45-.38-2.25-.19-2.25.38-2.26-.19-2.26v-2.06l.38-2.26-.57-2.44.57-2.25v-2.26l-.19-2.44v-2.26l.19-2.06L1124,823v-8.83l.19-2.25-.38-2.45.57-2.25v-6.77l-.57-2.25.57-2.26-.19-2.25.19-2.26-.57-2.44v-4.32l.57-2.44-.57-2.07.38-2.44-.38-2.07.38-2.26.19-2.63-.19-2.25v-2.26l.19-2.25-.57-2.26.57-2.06-.57-2.26,2.45-2.44,2.63.19h6l2.44-.19,2.45.19,2.44-.19,2.26.19,2.25-.19h2.07l2.06.19h2.45l2.06-.19,2.45.19h1.69l2.82-.19h4.13l2.26.19h6.38l2.45-.19h6.57l2.64.37H1189l1.88.38,2.63.38,1.88.56,2.07.37,4.51,1.51,2.25.75,2.07,1.13,1.69,1.13,1.69,1.12,1.88,1.69,1.5,1.51,1.32,1.31,1.5,1.69,1.51,1.88,1.31,1.69.94,2.26,1.13,1.88.37,1.88,1.13,2.06.56,2.45.38,1.88.38,2.44.37,2.07v6.57l-.19,2.26-.18,2.44-.19,2.07-.57,2.25-.56,2.07-1.13,2.26-.94,2.06-.37,1.69-1.5,2.07-1.13,1.69-1.13,2.07-1.5,1.5-1.32,1.5-1.88,1.51-2.06,1.31-1.88,1.32-2.07,1.13-1.5,1.12-2.07.76-2.26.75-2.06.75-2.45.56-2.06.75-2.45.38h-2.25l-2.44.19-1.88.37-4.32-.18H1177l-1.69.18h-9.2l-2.26-.18-2.44.18h-1.69l-2.26-.18h-4.32l-2.63.18-2.26-.18h-12.77l-2.64,2.25v4.51l.19,2.44v2.26l-.37,2.07v2.44l.56,2.25v2.26l-.19,2.25v2.26l-.19,1.88v2.44l-.18,2.07.56,2.25-.56,2.45v2.25l.56,2.26-.56,2.25v2.07l.18,2.44.38,2.26-.19,2.25-2.06,2.07h-4.33l-2.82-2.26Zm13.34-57.88h2.26l2.25-.19,2.07.19h2.07l2.06-.19h4.89l2.25.19h2.07l2.44-.19h1.7l2.81.19,1.7-.19,2.81.19,2.26-.19H1173l1.88.19h2.25l2.26-.19,4.69.19,2.26-.38h2.07l2.63-.37,2.06-.57,1.88-.56,2.45-.56,1.69-.94,2.25-.94,1.88-.94,1.88-1.32,1.69-1.5,1.13-1.5,1.88-1.88.75-1.51,1.32-2.06.56-2.07.94-1.88.75-2.25v-2.26l.56-2.25.57-1.88-.38-4.51.19-2.45-.56-2.06L1214,785l-.18-1.88-1.32-2.25-.56-2.07-1.13-1.88-1.13-1.88-1.69-1.69-1.13-1.5-2.06-1.69-1.51-1.32-1.69-.94-2.44-1.12-2.26-.57-2.06-.94-2.45-.56-2.25-.19-2.26-.37-2.06-.38h-2.63l-4.14-.19h-4.7l-2.63.19-1.69-.19-2.25.19-2.82-.19h-1.88l-2.44.19h-2.26l-2.25-.19-2.45.19-2.44-.19-2.25.19h-2.26l-2.07-.19-2.25.19-2.63-.19-2.07.19h-2.82l-2.07,2.25v4.33l.38,2.25v2.07l-.38,2.44v4.51l.19,2.07v2.44l-.37,2.07.56,2.44-.19,2.26V795l-.19,2.26v2.25l.38,2.26V804l-.19,2.26-.19,2.07.19,2.25v2.26l-.37,2.25v2.07l.37,2.44v2.25l2.45,2.07Z"/><path class="cls-8" d="M1560.91,755l2.06,2.25-.18,2.45.37,2.06-.19,2.45.19,2.06-.19,2.45v4.69l.38,2.07-.38,2.26V780l-.18,2.44v2.07l.18,2.26-.18,2.25.18,2.26-.18,2.25.37,2.44v9l-.19,2.45.19,2.06-.37,2.26.18,2.44.19,2.26.19,2.06-.56,2.26.37,2.44.19,2.07v2.25l-.19,2.26-.19,2.44.38,2.07-.56,2.44v2.44l.56,2.07v2.25l-.56,2.45V848l.18,2.44.19,2.06V857l.19,2.25v2.44l-.56,2.07.18,2.44.38,2.26-.56,2.44L1563,873l.38,2.25v4.7l-.19,2.07-.37,2.25-1.88,2.26h-4.51l-2.26-2.07V882.2l-.19-2.26.38-2.44-.56-2.45L1554,873v-4.7l-.18-2.26L1554,864v-4.7l-.18-2.25.56-2.26-.38-4.7.38-2.06-.38-2.45.38-2.07-.38-2.25v-6.76l.19-2.64-.37-2.06.56-2.26-.19-2.25-2.63-2.45h-4.32l-2.07.19h-4.88l-2.07-.19h-6.58L1529,823l-1.69-.19h-2.63l-2.44.19-1.88-.19h-2.63l-2.26.19h-1.69l-2.82-.19-1.69.19-2.07-.19-2.63.19-2.25-.19-1.88.19h-2.26l-2.25-.19-2.82.19-1.69-.19h-4.51l-2.63.19h-1.88l-2.44-.19h-2.63l-1.88.19h-4.7l-2.44-.19h-2.07l-1.88,2.45-.56,2.25.18,2.26v2.06l.19,2.64v2.06l-.37,2.26.56,2.44-.56,2.25.37,2.26V848l.19,2.25v4.32l-.56,2.63.18,2.07v2.25l-.18,2.26v2.44l.37,2.26.19,2.06-.38,2.45.38,2.25-.56,2.26.56,2.44-.38,2.26.38,2.06-2.63,2.26h-2.26l-2.25.19-2.26-2.45-.18-2.06.18-2.45.19-2.06.19-2.45-.56-2.06.37-2.45V864l-.37-4.51v-4.7l.56-2.26V841.23l-.19-2.07.19-2.44-.19-2.44-.19-2.07.38-2.25-.19-2.26.19-2.44-.19-2.26v-6.57l-.19-2.45.38-4.51V805l-.19-2.44v-2.25l.19-2.07-.19-2.26.19-2.25-.38-2.44v-2.07l-.18-2.44.18-2.26v-2.25l.19-2.26v-6.58l-.19-2.44V768.7l.19-2.26-.37-2.44.56-2.26v-2.25l-.19-2.07,1.88-2.25,2.63-.19h2.26l2.44,2.44v2.07l-.19,2.25v2.45l.19,2.25v2.44l-.56,2.07v6.77l.37,4.51-.37,2.44.56,2.25-.56,2.45.18,2.06.38,2.26v4.7l-.19,2.25-.37,2.26.18,2.44v2.07l.38,2.25-.56,2.26,2.63,2.25,2.06.19,2.26-.19,2.25.19,2.26-.19,2.44.19h4.51l2.26-.19h2.06l2.26.19,2.07-.19,2.63.19h4.13l2.63-.19h4.14l2.44.19h2.63l1.5-.19,2.63.19,1.88-.19h2.82l1.69.19h2.82l1.88-.19,2.63.19h2.07l2.25-.19h6.77l2.07.19h2.44l2.44-.19,1.69.19,2.63-.19h2.07l2.63-2.25-.56-2.26v-6.95l.56-2.07V798.2l-.38-2.26.19-2.06.19-2.26-.38-2.25.38-2.26-.56-2.44v-2.26l.37-2.25-.19-2.26v-4.69l.38-2.07-.56-2.44.56-2.26-.19-2.44.19-2.07v-2.44l-.38-2.07,2.45-2.44Z"/><path class="cls-8" d="M1689.45,897.41l-.66-2.44v-1.91l-.66-2.44-.73-2.06-.1-2.32-.55-2-.73-2.07-.14-2.14-.7-2.25-.65-2.43-.33-2.17-.73-2.07-.14-2.14-.11-2.32-2.72-2.66-2.8-.38-2-.59-8.48-1.72-2.61-.34-2.17-.63-2.07-.23-2.17-.63-2.39-.49-1.88-.19-2.18-.63-2.24-.26-2.54-.71-2.62-.34-2.17-.63-2.07-.23-8.47-1.72-2.72-.74-6.63-1.35-1.7-.15-2.54-.71-4.42-.89-2.43-.3-3.17,1.46-1.3,1.66-1.55,2-.93,1.73L1603.1,859l-2.48,3.72-1.3,1.65-1.51,1.8-1.66,1.58-.6,2-1.92,1.91-1.33,1.84-.78,1.95-1.66,1.58-1.19,2.06-3.69,1.17-2.58-.52-2.43-.3-.69-2.25,1.55-2,.93-1.73,1.55-2,1.11-1.69,1.37-2,.93-1.73,1.37-2,1.44-1.43,1.55-2,1.33-1.84.78-2,1.66-1.58,1.15-1.88,1-1.91,1.55-2,1.29-1.65,1.52-1.8,1.15-1.88,1.51-1.8.6-2,1.37-2,1.66-1.58,1.15-1.88,1.14-1.87,1.67-1.58,1-2.1,1.15-1.88,1.7-1.76,1.33-1.84,1-1.92,1.33-1.83,1.67-1.58,1-2.1,1.29-1.66,1-1.91,1.93-1.91,1.29-1.66,1-2.09,1.3-1.66,1.14-1.88,1.3-1.65,1.15-1.88,1.18-2.06,1.7-1.76,1.29-1.66,1.56-2,.92-1.73,1.56-2,1.15-1.87,1.47-1.62.82-2.14,1.11-1.69,1.92-1.91,1-1.91,1.51-1.81.93-1.73,1.29-1.65,1.74-1.95.93-1.73,1.18-2.06,1.52-1.8,1.11-1.69,4.09-1.28,4.42.9,2.76,2.47.88,2.29.32,2.18.14,2.13.48,2.4.83,4.39.4,1.8.47,2.4.74,2.07.28,2.36.7,2.25.54,2,.51,2.22.7,2.25.32,2.17.51,2.21,0,2.11.51,2.21.7,2.25.32,2.17.66,2.44.36,2,.92,2.1L1682,818l-.23,2.07.88,2.28.69,2.25.51,2.22-.08,2.28.33,2.18,1.06,2.32.14,2.14.36,2,.7,2.25.29,2.36.87,2.29.37,2,.14,2.14.51,2.21.88,2.29,0,2.1.54,2,.66,2.44.55,2,.28,2.36.92,2.1.33,2.18.47,2.39v1.92l.66,2.43,1.2,4.46.33,2.18L1696,884v1.91l.47,2.4.54,2,.66,2.43.55,2,.32,2.18.7,2.24.29,2.36-2.22,1.47-2-.41-2.8-.37-2.87-2.89Zm-70-54.48,1.69.15,2.73.75,2.24.26,1.62.52,2.43.31,15.66,3.17,1.8.56,2.07.23,9.2,1.86,1.62.52,6.63,1.35,2.8.37,2,.6,4.24.86,2.24.26,1.67-1.58-1.21-4.46-.1-2.32-.36-2-.85-2.47-.32-2.18-.51-2.21-.73-2.07-.33-2.17-1-4.43-.28-2.36-.7-2.25-.55-2-.32-2.17-.7-2.25-.28-2.36-.18-1.95-.48-2.4-.73-2.07-.65-4.35-.66-2.43-.73-2.07-1.53-6.63-.32-2.18,0-2.1-.69-2.25-.66-2.43-.55-2-.51-2.22-.14-2.13-.69-2.25-1.44-.49-1.33,1.84-1.55,2-2.48,3.71-1.7,1.77-.75,1.76-1.36,2-1.85,1.54-1,1.91-1.56,2-.92,1.73-1.15,1.88-1.89,1.72-1.14,1.88-1,2.1-1.52,1.8-1.15,1.87-1.7,1.77-1.29,1.65-1.15,1.88-1,2.1-1.52,1.8-1.14,1.88-1.52,1.8-1,1.91-1.34,1.84-1.11,1.69-1.37,2-1.33,1.84-1.66,1.58-1.51,1.8-1.37,2-.75,1.77-1.7,1.76-.81,2.14.73,2.06Z"/><path class="cls-8" d="M1336,882.38l-1.13-2.25-.37-1.88-1.13-2.26-1.13-1.88-.56-2.25-.94-1.88-1.13-1.88L1329,866l-1.13-2.06-1.13-2.26-.75-2.06-1.13-1.88-.56-2.07-.57-2.26-3.19-2.06-2.82.19-2.07-.19H1307l-2.63.19-2.26-.19-2.06.19-2.26-.19h-2.44l-1.88.19-2.25-.19-2.26.19-2.63-.19-2.63.19-2.26-.19-2.06.19h-8.65l-2.82-.19h-6.76l-1.69.19-2.63-.19h-4.51l-2.44.19-2.82,2.06-.94,1.88-1.13,2.26-.56,1.88-.76,2.25L1242,866l-.94,1.88-1.12,2.07-1.32,1.88-.19,2.07-1.5,2.25-.94,2.07-.38,2.07-1.31,1.88-.75,2.25-3.39,1.88h-2.63l-2.44.19-1.13-2.07,1.13-2.25.56-1.88,1.13-2.26.75-1.88.94-2.25.57-1.88.94-2.26,1.12-1.69,1.13-2.25.94-2.07.38-2.07,1.31-1.88.75-2.06.57-2.07,1.12-2.26.94-1.87,1.13-2.07.75-2.07,1.13-2.07.19-2.06.94-2.26,1.31-1.88.76-2.06.75-2.07,1.31-1.88.57-2.26.75-2.06,1.31-2.07.94-2.07.57-2.06.94-2.07,1.31-1.88.56-2.25.94-1.88.57-2.07,1.5-2.26.94-1.87.57-2.26.93-1.88.76-2.07.94-1.87.75-2.07.75-2.26,1.31-2.06.94-1.88,1.13-2.26.57-1.88,1.12-2.25.75-2.07,1.13-1.88.38-2.25.75-1.88,1.5-2.26.57-2.06,1.12-2.07.57-1.88.94-1.88,1.31-2.26.57-1.87.75-2.26,1.13-2.07.75-1.88,3.76-2.06h4.51l3.19,1.88,1.32,2.06.75,2.07.56,2.07.94,2.25,1.69,4.14.75,1.69.94,2.25,1.13,1.88.75,2.26,1.13,2.06.94,1.88.94,2.07,1.13,2.07.75,2.06.94,2.07.37,2.07.94,2.07,1.13,2.06.75,2.07,1.13,2.26.75,1.87,1.32,1.88.94,2.07.18,2.07,1.32,2.06,1.13,2.07.94,2.07.37,2.25.75,2.07,1.51,2.07.56,2.06.75,1.88,1.13,2.07.75,2.26,1.32,2.06.75,1.88.56,2.07.94,2.07,1.32,2.06.37,2.07.94,1.88,1.13,2.25.94,1.88.75,2.26,1.32,1.88.75,2.06.94,2.26.37,1.88,1.13,2.25,2.07,4.14.75,2.06,1.13,1.88.37,1.88.94,2.26.94,1.88,1.13,2.25.94,1.88.75,2.07,1.13,2.07.75,2.25-1.88,1.88h-2.07l-2.81.19-3.39-2.26Zm-79.49-39.46,1.69-.19,2.82.19,2.26-.19,1.69.19,2.44-.19h16l1.88.19,2.07-.19h9.4l1.69.19h6.76l2.82-.19,2.07.19h4.32l2.25-.19,1.32-1.88-2.07-4.13-.56-2.25-.75-1.88-1.32-2.26-.75-2.07-.94-2.06-1.13-1.88-.75-2.07-1.88-4.13-.75-2.26-1.13-2.07-.94-1.87-.75-2.07-1.13-2.07-.75-2.25-.56-1.88-.94-2.26-1.13-1.88-1.5-4.13-1.13-2.26-1.13-1.87-2.82-6.21-.75-2.06-.37-2.07-1.13-2.07-1.13-2.25-.94-1.88-.94-2.07-.56-2.06-1.13-2.07-1.5-.19-.94,2.07-1.13,2.25-1.69,4.14-1.31,2.06-.38,1.88-.94,2.26-1.5,1.88-.57,2.06-1.12,2.26-.57,1.88-.75,2.06-1.5,2.07-.76,2.07-.56,2.25-1.13,2.07-.75,2.07-1.31,2.06-.94,1.88-.75,2.07-.57,2.26-1.13,2.06-.75,2.07-1.13,2.07-.56,2.06-.94,2.07-.75,1.88-.94,2.26-.94,2.06-1.31,1.88-1.13,2.07-.94,2.25-.38,1.88-1.31,2.07-.38,2.25,1.13,1.88Z"/><path class="cls-9" d="M1029,1022.13l2.38-.57,2.07,1.51-.56,1.95,0,2.38-.32,2.08-.67,2.19-.86,2.25-.2,2.43-.08,2.2-.38,1.9-.2,2.43-.68,2.19-.31,2.08-.86,2.25-.2,2.44-.5,2.13.1,2.14-.44,2.31-.32,2.08-1,2.49-.14,2-.44,2.31-.08,2.2-.92,2.07,0,2.37-.5,2.14-.49,2.13,0,2-.92,2.67-.56,2-.08,2.19-.2,2.44-.73,2,0,2.38-.73,2-.2,2.44-.68,2.19.1,2.14-1.3,4.56-.75,4.39-.32,2.08-.32,2.07-.2,2.44-.08,2.2-.94,4.44-.37,1.9-1,2.49.1,2.14-1.3,4.56-.08,2.2-.08,2.2-.85,2.25-.26,2.25-.38,1.9-.85,2.25-.62,2.37-.38,1.9-1,2.31-.86,2.25-.31,2.07-1.33,2-1.09,2.13-2.36,3.72-2.09,1.46-1.09,1.54-2.33,1.34-1.79,1.17-1.55.7-4.12,1.32-2.2.52-2.56.62-2.2-.08-1.67.34-2.2-.08-2.19-.08-2-2.52.38-1.89-.34-2.26,2.16-1.88,2.73-.1,2.56,0,4.29-.79,4.53-1.26,3.46-2.11,1.93-2,1.14-1.35,1.33-2,.31-2.08,1.15-2,.44-2.31,1.09-2.13.38-2.49.68-2.19.26-2.26.56-2.55.44-2.31.32-2.08.5-2.73-1.27-3.93-1.77-1.21-1.58-1.85-1.53-1.68-3.18-3.13-2.24-1.45-1.12-1.61-1.47-1.5-2.12-1.69-1.59-1.26-1.59-1.86-1.47-1.5-1.47-1.5-2.12-1.68-1.71-1.63-.88-1.49-1.76-1.8-1.89-1.56-1.77-1.21L970.7,1098l-1.35-1.74-2-1.32-1.23-2-1.83-1.38-1.71-1.62-1.29-1.56-2.12-1.69-2.82-3.24-1.83-1.38-1.88-1.56-1.47-1.5-1.41-1.92-1.77-1.21-1.35-1.73-1.77-1.8-2-1.33-1.47-1.5-1.35-1.74-2-1.33-1.17-1.79-2.07-1.51-1.65-1.44-1.22-2-2.19-1.27-1-1.86-.1-2.14,3.76-1.21,1.84-.39,3.62.81,1.83,1.38,1.41,1.92,1.94,1.14,1.71,1.63,1.17,1.79,1.53,1.68,1.77,1.21,1.59,1.85,1.77,1.21,1.17,1.8,2.12,1.68,1.11,1.62,2.07,1.5,1.77,1.21,1.17,1.79,2.07,1.51,1.11,1.62,1.47,1.5,1.53,1.68,1.7,1.62,1.83,1.38,1.77,1.8,1.83,1.39,1.17,1.79,1.82,1.39,1.3,1.56,1.52,1.67,1.65,1.45,1.47,1.5,2.07,1.5,1.65,1.45,1.76,1.8,1.35,1.73,1.6,1.27,1.7,1.62,1.71,1.62,1.47,1.5,3.18,3.12,1.7,1.63,1.35,1.73,1.47,1.5,2.33-.75.44-2.31-.1-2.14.73-2,.21-2.44.91-2.07-.33-2.26,1.09-2.13-.28-2.08.86-2.25.56-2.55-.22-1.9.79-2.43.5-2.14-.1-2.14.8-2.43.14-2,.44-2.31.14-2,.67-2.19.14-2,.38-2.49.76-4.39.86-2.25.49-2.13-.1-2.14.8-2.43-.1-2.14.56-2,.62-2.37.44-2.31.26-2.26.44-2.31.55-2,.26-2.25.68-2.2-.1-2.14.79-2.42.14-2,.14-2,.44-2.32.86-2.25,2.76-3.06Z"/><path class="cls-9" d="M1048.36,1166.66h-2.82l-1.88-.56-1.69-2.44.19-2.26.38-1.69,2.44-1.5,2.25.37,6.77.19,2.44-.38,1.88-.75,1.88-1.12,1.5-1.13,1.88-1.13,1.51-1.5,1.5-1.88,1.13-1.69,1.12-1.88.94-2.07.76-2.25.94-1.88.37-2.26,1.13-2.25.19-2.26.56-2.07.94-2.25.19-2.44.94-2.07.37-2.26V1121l.57-2.44.18-2.26.38-2.25.56-2.07-.18-2.44.56-2.26.38-2.25-.19-2.26.19-2.25.37-2.26-.19-2.44.38-2.26v-2.25l.56-2.44-.18-2.07.18-2.44v-2.07l.19-2.44.19-2.07.19-2.44-.38-2.26.38-2.44-.19-2.07-.19-2.44v-2.07l.19-2.25v-2.26l-.19-2.25.19-2.45.38-2.06.18-2.26-.18-2.44V1046l-.19-2.44v-2.07l.19-2.44.18-2.26,1.88-2.06H1085l2.26-.19,2.44.19,2.26-.19,2.06.19h4.7l2.26-.19,2.25.19,1.88-.19h4.32l2.26.19h4.51l2.25-.19h2.07l2.26.19,2.25-.19h4.89l2.25.19h4.51l2.07-.19,2.07.19,1.87-.19h7.15l2.06.19,2.07-.19,2.44.19,2.26-.19h4.13l2.26,2.25.56,2.26-.19,2.44-.19,2.07.38,2.25-.38,2.26.19,2.25v4.89l-.37,2.07.37,2.44v4.32l-.19,2.26.38,2.44-.38,2.07v4.69l.38,2.07-.56,2.44.18,2.26v2.44l.19,2.07-.37,2.25v2.45l.37,2.06.19,2.26-.19,2.44-.37,2.07.56,2.25-.56,2.26v2.25l.18,2.45v4.32l.38,2.25-.38,4.7.38,2.44v2.07l-.56,2.26V1130l.37,2.07v2.25l.19,2.26-.38,2.44-.18,2.25.56,2.26-.38,2.07-.18,2.25.18,2.63.19,2.07V1155l-.37,2.07.18,2.25v2.26l.19,2.44-2.07,2.07h-2.63l-1.87.19-2.26-2.26-.19-2.44v-4.51l-.19-2.07.57-2.25v-2.07l-.19-2.44V1146l-.38-2.25.19-2.26.38-2.25-.38-2.26v-1.88l.19-2.44-.19-2.25.19-2.26-.19-2.07v-2.25l.38-2.26-.57-2.25v-2.26l.19-2.06-.19-2.45.57-2.25V1108l-.19-2.06v-2.45l-.38-2.06v-2.26l.19-2.44.19-2.26.19-1.88-.19-2.44v-2.25l-.19-2.26.38-2.07-.38-2.44v-2.06l.38-2.45v-2.25l-.57-1.88.19-2.26.38-2.25-.38-2.45v-2.25l.19-2.25-.19-2.07v-4.7l.38-1.88-.57-2.25.38-2.45v-2.06l-2.63-2.26-2.26-.19h-2.06l-2.07.19h-13.34l-2.63-.19h-1.69l-2.82.19h-1.69l-2.63-.19h-4.14l-2.44.19-2.44-.19-2.45.19-1.88-.19h-11.08l-2.07.19-2.26-.19-2.63.19-2.25,2.07.19,2.44-.38,2.26.19,2.25-.19,2.26-.19,2.25.38,2.26-.38,2.06v2.26l.38,2.44-.38,2.26.38,2.25v2.07l-.75,2.25.19,2.26.37,2.25-.56,2.26V1084l-.19,2.07-.19,2.44-.19,2.07.38,2.25v2.26l-.19,2.44-.75,2.07v2.25l-.19,2.45-.19,2.25-.37,2.07.19,2.25-.38,2.26-.56,2.25.18,2.26-.75,2.06-.56,2.26-.38,2.25v2.45l-.75,2.25-.37,1.88-.38,2.44-.56,2.26-.38,2.07-.94,2.06-.56,2.26-.75,2.06-.76,2.07-1.5,2.07-.38,2.07-1.5,2.06-1.13,1.88-1.31,1.69-1.5,1.88-.94,1.69-2.07,1.51-3.76,2.82-1.88.75-2.07.94-1.88.94-4.13.56h-4.7Z"/><path class="cls-9" d="M1309.19,1034.56l2.26.19,2.63,2.25-.57,2.07.57,2.44-.38,2.07.19,2.25-.38,2.45.57,2.06-.57,2.64.38,2.06-.38,2.44v2.26l.19,2.07.38,2.44-.38,2.07.19,2.25-.19,2.44.38,2.07-.57,2.26.19,2.44.38,2.07-.38,2.25v2.63l.19,2.07.19,2.44-.19,2.26.19,2.25-.57,2.07.57,2.44-.19,2.26v2.06l.19,2.26-.38,2.44-.19,2.07.19,2.25.38,2.45-.57,2.06.38,2.63-.38,2.07v2.44l.57,2.07-.57,2.44V1130l.38,2.25v2.26l-.38,2.07V1139l.57,2.07-.19,2.25-.38,2.44v2.26l.19,2.25.19,2.26.19,2.44-.38,2.07.19,2.25v2.45l-.38,2.25-1.88,2.26h-4.69l-2.07-2.26-.19-2.25v-2.45l-.19-2.06.19-2.26.38-2.44-.38-4.51.19-2.26.19-2.06-.57-2.26.38-2.44-.38-2.07.57-2.25-.38-2.45.38-2.25-.38-2.26.19-2.06.19-2.45V1121l-.38-2.07.19-2.25v-4.51l-.38-2.26.57-2.25-.38-2.26v-2.25l-.19-2.44v-2.07l.38-2.26-.19-2.44v-2.07l-.19-2.44v-6.58l.38-2.44-.38-2.07.19-2.25v-2.26l.38-2.44-.57-2.07.19-2.44.19-2.07-.19-2.44.19-2.07v-2.25l-.38-2.44.19-2.26-.19-2.07-.94-.56-1.69,1.88-1.31,1.69-.94,1.69-1.69,1.88-1.13,1.69-1.32,1.88-1.31,1.69-1.69,1.88-1.13,1.88-1.5,1.5-1.13,1.88-1.69,1.88-1.13,1.69-1.5,1.69-1.51,1.88-1.5,1.7-.94,1.87-1.5,1.7-1.13,1.87-1.69,1.7-1.13,1.69-1.88,1.69-1.31,1.88-1.51,1.88-1.12,1.88-1.51,1.5-.94,1.88-1.5,1.69-1.32,2.07-1.5,1.69-1.69,1.69-1.32,1.88-1.31,1.5-1.5,2.07-1.32,1.5-1.13,1.88-1.12,1.88-1.7,1.69-.94,1.88-1.87,1.88-1.32,1.69-1.5,1.69-1.13,1.69-.94,1.88-1.69,1.69-1.13,1.69-1.5,2.07-1.51,1.5-1.31,2.07-1.69,1.51-1.13,2.06-1.32,1.69-1.69,1.69-1.31,1.88-1.32,1.7-1.12,1.87-1.7,1.51-1.31,2.06-1.13,1.7-1.69,1.69-1.13,1.88-1.31,1.69-.94,1.69-1.69,2.07-1.69,1.31v.38l-2.26-.19-2.07.19h-2.44l-1.88-2.26v-2.44l-.19-2.26.38-2.06-.19-2.26v-2.44l.19-2.07-.56-7,.37-2.26-.37-2.25.37-2.44-.37-2.26.18-2.25-.18-2.07.37-2.44v-2.26l-.37-2.07.37-2.44v-2.25l-.37-2.26.18-2.25-.18-2.26.37-2.25-.37-2.26.37-2.44-.37-2.26v-2.25l.56-2.07-.19-2.25v-2.26l.19-2.25-.19-2.45.19-2.25v-4.51l-.19-2.26-.37-2.25v-2.26l.37-2.44-.37-2.25.56-2.07-.56-2.26.37-2.44V1062l-.19-2.26-.18-2.44.37-2.07v-2.44l.19-2.45-.38-2.06.19-2.26-.37-2.25.37-2.45-.37-2.25.37-2.26,2.26-2.06,2.25-.19,1.88.19,2.26,2.25-.19,2.26.56,2.06-.56,2.45v2.06l.37,4.51v2.26l-.37,2.44.37,2.44-.18,2.26v4.51l.18,2.25-.18,2.26.18,2.07-.18,2.25.37,2.26-.56,2.44.19,2.25.37,2.07-.19,2.44v2.26l-.18,2.25.37,2.26-.37,2.25.37,2.26-.56,2.25.56,2.26-.19,2.25-.37,2.26.37,2.44.19,2.26v4.32l-.56,2.25v2.26l.19,2.44.37,2.26-.37,2.06.37,2.45-.19,2.06v4.7l-.18,2.26V1139l.37,2.07-.37,2.25.18,2.26-.18,2.44.37,2.25,1.32.38,1.12-1.88,1.7-1.69.75-1.88,1.5-1.88,1.5-1.69,1.69-1.88,1.13-1.69,1.51-1.69.94-1.88,1.69-1.69,1.5-1.69.94-2.07,1.5-1.5,1.51-2.07,1.5-1.69.94-1.88,1.69-1.5,1.13-1.88,1.31-1.88,1.51-1.69,1.12-1.69,1.69-2.07,3-3.57.94-1.51,1.5-1.87,1.13-1.88,4.7-5.45,1.13-1.51,1.31-1.88,1.32-1.87,1.31-1.88,1.51-1.51,1.31-1.88,1.69-1.88.94-1.87,1.32-1.7,1.5-1.87,1.13-1.51,1.5-1.88,1.51-1.88,1.5-1.69,1.5-1.69,1.51-2.07.75-1.69,1.69-1.69,1.13-1.88,1.5-1.88,1.31-1.5,1.51-2.07,1.69-1.69,1.13-1.69,1.5-1.88.94-1.88,2.82-3.57,1.31-1.5,1.88-1.88.94-1.69,1.32-2.07,2.82-3.57,3.94-1.69Z"/><path class="cls-9" d="M1448.63,1162.72l-1.5-1.51-1.32-2.06-2.06-1.51-1.13-1.88-1.69-1.69-.76-1.5-3.38-3.76-1.31-1.69-.94-1.69-1.51-1.51-1.5-1.69-1.5-1.87-1.69-1.7-1.13-1.69-1.69-1.88-.94-1.69-1.51-1.5-1.69-1.88-1.31-1.88-1.32-1.5-3.19-3.39-1.32-1.87-2.82-3.57-1.31-1.51-1.13-1.88-1.5-1.5-1.69-1.88-1.51-1.5-1.12-1.88-1.51-1.69-1.31-1.88-3.57-1.69h-2.63l-1.88.18h-4.89l-1.69-.18-2.63.18H1381l-1.88-.18h-2.44l-2.44.18H1372l-2.44-.18h-1.69l-2.26.18-2.44,2.26-.19,2.25.19,2.26-.38,2.07.19,2.63-.19,2.25.57,2.07v2.44l-.38,2.26-.19,2.06.38,2.45-.19,2.06-.19,2.45v16l.19,2.25v2.26l-.19,2.07.57,2.63-.57,2.06.38,2.26-.19,2.44-2.25,2.07h-2.07l-2.63.19-2.26-2.45.38-2.06.19-2.45-.38-2.06.38-2.26-.38-4.51.38-2.63-.57-2.25.57-2.07-.19-2.26.19-2.44-.38-2.25.38-2.26-.57-2.07.57-2.25-.38-2.44.19-2.07-.19-2.44.19-2.07-.19-2.44.19-2.45-.19-2.06-.19-2.45.38-2.06-.19-2.26V1105l.19-2.45-.19-2.25v-2.26l.38-2.25v-2.07l-.38-2.25V1087l.19-2.26-.38-2.44.38-2.44-.38-2.26.57-2.07-.19-2.25v-2.44l-.38-2.07.57-2.44-.57-2.07v-2.44l.57-2.26-.38-2.25.19-2.26-.19-2.06-.19-2.64v-2.25l.57-2.26-.19-2.06-.19-2.26-.19-2.44.57-2.07,1.88-2.25,2.63-.19,2.06.19,2.26,2.06-.38,2.45.19,2.06-.19,2.45V1046l.57,2.44-.57,2.26.19,2.07v2.44l.19,2.25-.38,2.07.19,2.26.38,2.44v2.44l-.57,2.26.57,2.25v2.26l-.38,2.06-.19,2.45V1080l.38,2.45.19,2.25-.57,2.26.38,2.25v2.26l2.26,2.25,2.25.19h4.51l2.07-.19,2.63.19,2.25-.19,2.45.19h6.38l2.26-.19,2.25.19,2.07-.19h2.82l3.57-1.5,1.69-1.88.75-1.69,3.39-3.38,2.63-3.57,1.69-1.88,1.31-1.69,1.88-1.7,1.13-1.69,1.5-1.88,1.69-1.5.94-1.88,1.88-1.69,1.32-1.88,1.88-1.69,1.31-1.88.94-1.5,1.69-1.88,1.69-1.88.94-1.5,1.88-1.7,1.13-1.69,1.88-2.06,1.5-1.51,1.13-1.88,1.69-1.69,3-3.57,1.69-1.5,1.32-1.69,1.12-2.07,3.76-1.5h2.26l2.63-.19h1.69l.75,1.88-.75,1.5-1.69,1.88-1.88,1.69-1.32,1.69-.94,1.88-1.88,1.51-1.5,1.87-1.69,1.7-.75,1.88-1.51,1.5-1.5,1.88-1.69,1.69-1.13,1.5-1.88,1.88-1.12,1.69-1.51,1.69-1.5,1.88-1.69,1.51-1.32,1.88-1.5,1.69-1.13,1.69-1.88,1.69-2.44,3.38-2.07,1.69-.94,1.69-1.31,1.88-1.69,1.69-1.7,1.88-1.69,1.69-.75,1.7-4.88,5.07-1.32,1.69.38,3.57.75,1.88,1.5,1.69,1.51,1.5,1.31,1.88,1.69,1.7,1.32,1.87,1.88,1.51,1.5,1.88.75,1.69,2.07,1.69,1.5,1.88,1.13,1.69,1.13,1.69,1.88,1.69,1.12,1.88,1.32,1.5,1.5,1.88,1.88,1.88.94,1.51,1.88,1.88,1.32,1.87,1.12,1.51,1.51,1.88,1.88,1.69.94,1.88,1.69,1.5,1.5,1.88,1.69,1.69,1.13,1.69,1.13,1.69,2.06,1.88.94,1.69,1.51,1.88,1.12,1.51,2.07,1.88,1.32,1.69,1.31,1.88-.94,1.5h-2.44l-2.07.19h-2.07l-4.32-1.88Z"/><path class="cls-9" d="M1590.7,1034.56l2.25.19,2.63,2.25-.56,2.07.56,2.44-.37,2.07.19,2.25-.38,2.45.56,2.06L1595,1053l.38,2.06-.38,2.44v2.26l.19,2.07.37,2.44-.37,2.07.19,2.25-.19,2.44.37,2.07-.56,2.26.19,2.44.37,2.07-.37,2.25v2.63l.19,2.07.18,2.44-.18,2.26.18,2.25-.56,2.07.56,2.44-.18,2.26v2.06l.18,2.26-.37,2.44-.19,2.07.19,2.25.37,2.45-.56,2.06.38,2.63-.38,2.07v2.44l.56,2.07-.56,2.44V1130l.38,2.25v2.26l-.38,2.07V1139l.56,2.07-.18,2.25-.38,2.44v2.26l.19,2.25.19,2.26.18,2.44-.37,2.07.19,2.25v2.45L1595,1164l-1.88,2.26h-4.7l-2.06-2.26-.19-2.25v-2.45l-.19-2.06.19-2.26.37-2.44-.37-4.51.19-2.26.18-2.06-.56-2.26.38-2.44L1586,1137l.56-2.25-.37-2.45.37-2.25-.37-2.26.19-2.06.18-2.45V1121l-.37-2.07.19-2.25v-4.51l-.38-2.26.56-2.25-.37-2.26v-2.25l-.19-2.44v-2.07l.38-2.26-.19-2.44v-2.07l-.19-2.44v-6.58l.38-2.44-.38-2.07.19-2.25v-2.26l.37-2.44-.56-2.07.19-2.44.19-2.07-.19-2.44.19-2.07v-2.25l-.38-2.44.19-2.26-.19-2.07-.94-.56-1.69,1.88-1.31,1.69-.94,1.69-1.7,1.88-1.12,1.69-1.32,1.88-1.31,1.69L1574,1065l-1.12,1.88-1.51,1.5-1.12,1.88-1.69,1.88-1.13,1.69-1.51,1.69-1.5,1.88-1.5,1.7L1562,1081l-1.5,1.7-1.13,1.87-1.69,1.7-1.13,1.69-1.88,1.69-1.32,1.88-1.5,1.88-1.13,1.88-1.5,1.5-.94,1.88-1.5,1.69-1.32,2.07-1.5,1.69-1.69,1.69-1.32,1.88-1.31,1.5-1.51,2.07-1.31,1.5-1.13,1.88-1.13,1.88-1.69,1.69-.94,1.88-1.88,1.88-1.31,1.69-1.51,1.69-1.12,1.69-.94,1.88-1.69,1.69-1.13,1.69-1.5,2.07-1.51,1.5-1.31,2.07-1.69,1.51-1.13,2.06-1.32,1.69-1.69,1.69-1.31,1.88-1.32,1.7-1.13,1.87-1.69,1.51-1.31,2.06-1.13,1.7-1.69,1.69-1.13,1.88-1.32,1.69-.93,1.69-1.7,2.07-1.69,1.31v.38l-2.25-.19-2.07.19H1489l-1.88-2.26v-2.44l-.19-2.26.38-2.06-.19-2.26v-2.44l.19-2.07-.57-7,.38-2.26-.38-2.25.38-2.44-.38-2.26.19-2.25-.19-2.07.38-2.44v-2.26l-.38-2.07.38-2.44v-2.25l-.38-2.26.19-2.25-.19-2.26.38-2.25-.38-2.26.38-2.44-.38-2.26v-2.25l.57-2.07-.19-2.25v-2.26l.19-2.25-.19-2.45.19-2.25v-4.51l-.19-2.26-.38-2.25v-2.26l.38-2.44-.38-2.25.57-2.07-.57-2.26.38-2.44V1062l-.19-2.26-.19-2.44.38-2.07v-2.44l.19-2.45-.38-2.06.19-2.26-.38-2.25.38-2.45-.38-2.25.38-2.26,2.25-2.06,2.26-.19,1.88.19,2.25,2.25-.19,2.26.57,2.06-.57,2.45v2.06l.38,4.51v2.26l-.38,2.44.38,2.44-.19,2.26v4.51l.19,2.25-.19,2.26.19,2.07-.19,2.25.38,2.26-.57,2.44.19,2.25.38,2.07-.19,2.44v2.26l-.19,2.25.38,2.26-.38,2.25.38,2.26-.57,2.25.57,2.26-.19,2.25-.38,2.26.38,2.44.19,2.26v4.32l-.57,2.25v2.26l.19,2.44.38,2.26-.38,2.06.38,2.45-.19,2.06v4.7l-.19,2.26V1139l.38,2.07-.38,2.25.19,2.26-.19,2.44.38,2.25,1.31.38,1.13-1.88,1.69-1.69.75-1.88,1.51-1.88,1.5-1.69,1.69-1.88,1.13-1.69,1.5-1.69.94-1.88,1.69-1.69,1.51-1.69.94-2.07,1.5-1.5,1.5-2.07,1.51-1.69.94-1.88,1.69-1.5,1.13-1.88,1.31-1.88,1.5-1.69,1.13-1.69,1.69-2.07,3-3.57.94-1.51,1.5-1.87,1.13-1.88,4.7-5.45,1.12-1.51,1.32-1.88,1.32-1.87,1.31-1.88,1.5-1.51,1.32-1.88,1.69-1.88.94-1.87,1.32-1.7,1.5-1.87,1.13-1.51,1.5-1.88,1.5-1.88,1.51-1.69,1.5-1.69,1.5-2.07.76-1.69,1.69-1.69,1.12-1.88,1.51-1.88,1.31-1.5,1.51-2.07,1.69-1.69,1.12-1.69,1.51-1.88.94-1.88,2.82-3.57,1.31-1.5,1.88-1.88.94-1.69,1.32-2.07,2.81-3.57,4-1.69Z"/></g></g></svg>